<svg width="40" height="40" viewBox="0 0 40 40" fill="none" xmlns="http://www.w3.org/2000/svg">
<path d="M9.03125 6.5H25.4844L30.9688 12.125V33.5H9.03125V6.5Z" fill="#42ADFF"/>
<rect x="9.03125" y="6.5" width="6.75" height="4.21875" fill="#003D75"/>
<rect x="9.03125" y="10.7188" width="6.75" height="4.21875" fill="#006DCC"/>
<rect x="9.03125" y="14.9375" width="6.75" height="4.21875" fill="#0096FA"/>
<path d="M28.4375 23.0808H24.2454C24.2619 22.875 24.2784 22.5228 24.2784 22.0948V21.125H22.4771V22.0948C22.4771 22.5228 22.4991 22.875 22.5101 23.0808H18.3125V24.7495H20.4003C19.7227 25.2426 19.3592 26.0607 19.3592 27.09C19.3592 29.0676 20.9567 30.6875 23.375 30.6875C25.7933 30.6875 27.3908 29.073 27.3908 27.09C27.3908 26.0552 26.9722 25.2101 26.3497 24.7495H28.4375V23.0808ZM23.375 29.0242C22.0694 29.0242 21.1605 28.0219 21.1605 26.8408C21.1605 25.6597 22.0694 24.6574 23.375 24.6574C24.6806 24.6574 25.5895 25.6597 25.5895 26.8408C25.5895 28.0219 24.6806 29.0242 23.375 29.0242Z" fill="white"/>
</svg>
