<svg width="240" height="160" viewBox="0 0 240 160" fill="none" xmlns="http://www.w3.org/2000/svg">
<g opacity="0.8">
<g opacity="0.8">
<g opacity="0.8">
<g opacity="0.8">
<path opacity="0.6" fill-rule="evenodd" clip-rule="evenodd" d="M182.669 90.9323L141.444 140.819C140.458 142.012 138.759 142.319 137.421 141.545L54.368 93.5359C50.6387 91.3801 49.3567 86.5984 51.5047 82.8555C51.7454 82.4362 52.0243 82.0402 52.3379 81.6726L93.4773 33.4469C94.9489 31.7218 97.4486 31.3197 99.3838 32.4967L181.216 82.272C183.945 83.9318 184.816 87.4974 183.163 90.236C183.015 90.48 182.85 90.7127 182.669 90.9323Z" fill="url(#paint0_linear_4_8492)"/>
<path opacity="0.7" fill-rule="evenodd" clip-rule="evenodd" d="M142.017 74.3126L142.057 138.816C142.059 140.573 140.64 142 138.889 142C138.333 142 137.788 141.854 137.306 141.576L53.9475 93.4621C51.5316 92.0676 50.0417 89.4844 50.0399 86.6874L50 22.1841C49.9989 20.4267 51.4176 19 53.1686 19C53.7241 19 54.2698 19.1457 54.7513 19.4237L138.11 67.5379C140.526 68.9324 142.016 71.5156 142.017 74.3126Z" fill="url(#paint1_linear_4_8492)"/>
</g>
</g>
</g>
</g>
<rect x="167.364" y="123.352" width="3.76048" height="17.8623" rx="1.88024" transform="rotate(-45 167.364 123.352)" fill="#8EC5FF"/>
<path fill-rule="evenodd" clip-rule="evenodd" d="M175.468 126.138L174.315 126.621C173.831 126.824 173.447 127.208 173.244 127.692L172.789 128.777L168.693 124.681C167.959 123.947 167.959 122.757 168.693 122.022C169.427 121.288 170.618 121.288 171.352 122.022L175.468 126.138Z" fill="#53A5FE"/>
<path d="M156.648 112.241C156.133 111.004 157.373 109.764 158.609 110.279L180.236 119.29C181.463 119.801 181.468 121.538 180.244 122.056L172.501 125.337C172.143 125.489 171.857 125.774 171.706 126.133L168.425 133.876C167.906 135.099 166.17 135.094 165.659 133.867L156.648 112.241Z" fill="url(#paint2_linear_4_8492)"/>
<defs>
<linearGradient id="paint0_linear_4_8492" x1="94.0013" y1="96.0871" x2="170.482" y2="96.0871" gradientUnits="userSpaceOnUse">
<stop stop-color="#8F8FFF"/>
<stop offset="1" stop-color="#B4B4F9"/>
</linearGradient>
<linearGradient id="paint1_linear_4_8492" x1="79.3473" y1="46.1323" x2="79.3473" y2="109.786" gradientUnits="userSpaceOnUse">
<stop stop-color="#9191E8"/>
<stop offset="1" stop-color="#B9B9E7"/>
</linearGradient>
<linearGradient id="paint2_linear_4_8492" x1="157" y1="110.5" x2="172.5" y2="126" gradientUnits="userSpaceOnUse">
<stop stop-color="#459DFE"/>
<stop offset="1" stop-color="#9ECDFF"/>
</linearGradient>
</defs>
</svg>
